<svg width="99" height="36" viewBox="0 0 99 36" fill="none" xmlns="http://www.w3.org/2000/svg">
<path d="M81.6909 20.2795C85.8149 20.2795 89.1589 23.6225 89.1589 27.7475C89.1589 28.0655 89.1329 28.3785 89.0929 28.6855C88.6299 32.3665 85.4969 35.2135 81.6919 35.2135C77.7839 35.2135 74.5799 32.2095 74.2549 28.3835C74.2379 28.1745 74.2239 27.9615 74.2239 27.7465C74.2229 23.6225 77.5659 20.2795 81.6909 20.2795ZM85.4289 24.9335L83.9069 26.4565C84.0249 26.6595 84.1179 26.8785 84.1779 27.1125H86.3239C86.2139 26.3005 85.9029 25.5585 85.4289 24.9335ZM86.3339 28.4055H84.1709C84.1099 28.6355 84.0199 28.8535 83.8999 29.0535L85.4259 30.5785C85.8989 29.9585 86.2169 29.2165 86.3339 28.4055ZM82.3369 32.3865C83.1459 32.2735 83.8809 31.9565 84.5029 31.4875L82.9849 29.9685C82.7849 30.0855 82.5659 30.1715 82.3369 30.2315V32.3865ZM82.3369 25.2635C82.5719 25.3255 82.7919 25.4175 82.9969 25.5385L84.5179 24.0175C83.8929 23.5425 83.1509 23.2285 82.3369 23.1155V25.2635ZM81.0439 23.1135C80.2299 23.2265 79.4869 23.5425 78.8629 24.0165L80.3829 25.5375C80.5869 25.4165 80.8089 25.3245 81.0429 25.2625L81.0439 23.1135ZM81.0439 32.3845V30.2325C80.8139 30.1715 80.5969 30.0865 80.3969 29.9685L78.8779 31.4875C79.4999 31.9565 80.2359 32.2715 81.0439 32.3845ZM77.9519 30.5855L79.4829 29.0525C79.3629 28.8515 79.2659 28.6365 79.2049 28.4065H77.0589C77.1729 29.2145 77.4779 29.9625 77.9519 30.5855ZM79.2019 27.1125C79.2629 26.8785 79.3549 26.6595 79.4729 26.4565L77.9489 24.9335C77.4779 25.5585 77.1669 26.3005 77.0549 27.1135H79.2019V27.1125Z" fill="black"/>
<path d="M19.682 20.2795C23.806 20.2795 27.15 23.6225 27.15 27.7475C27.15 28.0655 27.124 28.3785 27.084 28.6855C26.621 32.3665 23.488 35.2135 19.684 35.2135C15.776 35.2135 12.572 32.2095 12.246 28.3835C12.229 28.1745 12.215 27.9615 12.215 27.7465C12.213 23.6225 15.557 20.2795 19.682 20.2795ZM23.42 24.9335L21.899 26.4565C22.017 26.6595 22.11 26.8785 22.17 27.1125H24.316C24.205 26.3005 23.894 25.5585 23.42 24.9335ZM24.324 28.4055H22.161C22.1 28.6355 22.01 28.8535 21.89 29.0535L23.415 30.5785C23.89 29.9585 24.209 29.2165 24.324 28.4055ZM20.328 32.3865C21.137 32.2735 21.872 31.9565 22.494 31.4875L20.976 29.9685C20.776 30.0855 20.557 30.1715 20.328 30.2315V32.3865ZM20.328 25.2635C20.563 25.3255 20.783 25.4175 20.988 25.5385L22.509 24.0175C21.884 23.5425 21.143 23.2285 20.328 23.1155V25.2635ZM19.034 23.1135C18.22 23.2265 17.477 23.5425 16.853 24.0165L18.374 25.5375C18.578 25.4165 18.8 25.3225 19.034 25.2625V23.1135ZM19.034 32.3845V30.2325C18.804 30.1715 18.587 30.0865 18.387 29.9685L16.868 31.4875C17.49 31.9565 18.227 32.2715 19.034 32.3845ZM15.943 30.5855L17.474 29.0545C17.354 28.8525 17.256 28.6385 17.196 28.4075H15.05C15.164 29.2145 15.468 29.9625 15.943 30.5855ZM17.193 27.1125C17.254 26.8785 17.345 26.6595 17.464 26.4565L15.941 24.9335C15.469 25.5585 15.159 26.3005 15.046 27.1135H17.193V27.1125Z" fill="black"/>
<path d="M1.74997 16.4136V10.8876C1.74997 9.9986 2.39597 9.2456 3.27397 9.1086C5.38097 8.7786 9.11598 8.1556 10.794 7.6386C13.2 6.8966 22.496 2.9606 25.715 2.2216C28.935 1.4826 43.453 -2.46339 57.358 2.35661C59.711 3.17161 70.296 8.2316 76.52 10.8626C78.353 10.9026 96.496 14.6846 97.462 17.2766C98.428 19.8696 98.731 21.1276 98.909 21.7856C99.087 22.4436 98.909 25.5926 97.561 27.7856C96.187 28.5626 93.542 29.0846 90.484 29.4346C90.519 29.2476 90.557 29.0636 90.581 28.8746C90.634 28.4706 90.659 28.1016 90.659 27.7496C90.659 22.8046 86.637 18.7806 81.691 18.7806C76.745 18.7806 72.723 22.8036 72.723 27.7496C72.723 28.0036 72.74 28.2556 72.759 28.5036C72.806 29.0586 72.906 29.5976 73.051 30.1166C73.044 30.1166 73.027 30.1166 73.027 30.1166L28.511 29.2206C28.531 29.1056 28.557 28.9916 28.572 28.8746C28.625 28.4726 28.65 28.1026 28.65 27.7496C28.65 22.8046 24.628 18.7816 19.682 18.7816C14.736 18.7816 10.713 22.8036 10.713 27.7496C10.713 27.7686 10.715 27.7846 10.716 27.8026L10.526 27.7866L2.91497 26.3536C2.91497 26.3536 -3.05176e-05 24.8016 -3.05176e-05 20.5316C-0.00103052 17.6836 1.74997 16.4136 1.74997 16.4136ZM45.909 11.1746L62.534 11.6836C62.228 9.19261 63.703 8.6336 63.703 8.6336C57.094 2.6346 43.774 2.4316 43.774 2.4316L45.909 11.1746ZM27.251 10.4136L42.401 10.9226L41.028 2.4326C33.198 2.3306 28.725 4.05861 28.725 4.05861L26.488 7.6686L27.251 10.4136ZM18.71 10.3616H22.931L27.151 4.5666C23.985 5.8266 21.451 7.0686 19.942 7.8536C19.026 8.3296 18.526 9.3466 18.71 10.3616Z" fill="black"/>
</svg>
