<svg fill="none" xmlns="http://www.w3.org/2000/svg" viewBox="0 0 100 47">
  <path d="M84.009 25.571c5.832 0 10.562 4.728 10.562 10.562 0 .451-.037.891-.094 1.328-.655 5.205-5.086 9.233-10.468 9.233-5.526 0-10.058-4.25-10.516-9.66a11.182 11.182 0 01-.045-.901c0-5.834 4.728-10.562 10.56-10.562zm3.97 7.571l-1.616 1.618c.126.216.225.449.287.697h2.28a4.915 4.915 0 00-.95-2.315zm.96 3.69h-2.297c-.064.245-.16.475-.287.688l1.62 1.621a4.982 4.982 0 00.965-2.309zm-4.244 4.226a4.933 4.933 0 002.3-.956l-1.61-1.611a2.638 2.638 0 01-.69.277v2.29zm0-7.564c.25.063.483.164.7.292l1.616-1.617a4.935 4.935 0 00-2.316-.958v2.283zm-1.374-2.282a4.922 4.922 0 00-2.316.959l1.616 1.616c.216-.128.45-.229.7-.292v-2.283zm0 9.844v-2.288a2.672 2.672 0 01-.688-.279l-1.612 1.612c.66.499 1.443.835 2.3.955zm-3.283-1.911l1.626-1.627a2.641 2.641 0 01-.295-.687h-2.28c.123.859.446 1.655.949 2.314zm1.328-3.687c.063-.249.162-.481.287-.697l-1.618-1.618a4.944 4.944 0 00-.95 2.315h2.28zM18.8 25.571c5.832 0 10.563 4.728 10.563 10.562 0 .451-.037.891-.095 1.328-.655 5.205-5.085 9.233-10.467 9.233-5.527 0-10.06-4.25-10.517-9.66a11.662 11.662 0 01-.045-.901c0-5.834 4.728-10.562 10.562-10.562zm3.972 7.571l-1.618 1.618c.127.216.226.449.289.697h2.278a4.914 4.914 0 00-.95-2.315zm.959 3.69h-2.298c-.062.245-.16.475-.287.688l1.622 1.621a4.98 4.98 0 00.963-2.309zm-4.244 4.226a4.938 4.938 0 002.3-.956l-1.611-1.611a2.618 2.618 0 01-.688.277v2.29h-.001zm0-7.564c.25.063.482.164.7.292l1.615-1.617a4.936 4.936 0 00-2.315-.958v2.283zm-1.375-2.282a4.914 4.914 0 00-2.315.959l1.614 1.616a2.7 2.7 0 01.7-.292v-2.283zm0 9.844v-2.288a2.657 2.657 0 01-.688-.279l-1.613 1.612a4.945 4.945 0 002.3.955zm-3.283-1.911l1.627-1.627a2.68 2.68 0 01-.297-.687H13.88c.122.859.444 1.655.948 2.314zm1.328-3.687c.063-.249.162-.481.287-.697l-1.62-1.618c-.5.664-.83 1.452-.946 2.315h2.279zM23.173.001l28.335.357a1.538 1.538 0 01-.001 3.077h-.038l-28.335-.357a1.54 1.54 0 01-1.52-1.558c.012-.85.733-1.55 1.559-1.519zM34.38 35.844h33.454a1.538 1.538 0 010 3.078H34.38a1.538 1.538 0 010-3.078z" fill="#000"/>
  <path d="M.429 27.062a1.887 1.887 0 011.458-.688h1.749L5.413 6.916a2.062 2.062 0 012.086-1.875l50.028.75c.778.012 1.51.376 1.988.991l6.63 8.523L87.86 16.65a3.823 3.823 0 012.926 1.668l1.223 1.799s2.094.737 2.655 1.201c.487.403 1.456 2.069 1.456 2.069.184.26.206.603.059.884a.85.85 0 01-.757.46v1.896h1.807a1.859 1.859 0 011.858 1.858v3.424a2.305 2.305 0 01-2.305 2.305h-1.235l-3.183-8.782a2.022 2.022 0 00-1.9-1.333h-11.11a2.02 2.02 0 00-1.607.796l-7.484 9.824H31.199l-5.482-9.25a2.017 2.017 0 00-1.738-.99H13.778c-.72 0-1.385.383-1.748 1.005L6.655 34.72H4.727a4.246 4.246 0 01-4.165-3.425l-.524-2.666a1.876 1.876 0 01.39-1.567zm47.59-9.792h11.528v-3.541h2.335l-3.494-4.613a.809.809 0 00-.633-.321L46.06 8.621v5.108l1.958 3.541zm-19.063 0h12.432V8.551l-14.993-.223v6.38l2.56 2.562zm-6.407 0v-9L9.642 8.078a.415.415 0 00-.42.385l-.605 8.807h13.932z" fill="#000"/>
</svg>
