<svg fill="none" xmlns="http://www.w3.org/2000/svg" viewBox="0 0 99 36">
  <path d="M81.69 20.28a7.468 7.468 0 017.469 7.467c0 .319-.026.631-.066.939-.463 3.68-3.596 6.528-7.401 6.528a7.467 7.467 0 01-7.437-6.83 7.853 7.853 0 01-.031-.637 7.466 7.466 0 017.467-7.468zm3.739 4.653l-1.522 1.523c.118.204.21.422.27.657h2.147a4.612 4.612 0 00-.895-2.18zm.905 3.473H84.17c-.061.23-.151.448-.271.648l1.526 1.524c.473-.62.79-1.361.908-2.172zm-3.997 3.98a4.652 4.652 0 002.166-.899l-1.518-1.518a2.57 2.57 0 01-.648.262v2.155zm0-7.123c.235.063.455.154.66.275l1.52-1.52a4.64 4.64 0 00-2.18-.902v2.148zm-1.293-2.15a4.648 4.648 0 00-2.181.904l1.52 1.52c.204-.12.426-.212.66-.274v-2.15zm0 9.272v-2.152a2.55 2.55 0 01-.647-.265l-1.52 1.52a4.654 4.654 0 002.167.897zm-3.092-1.8l1.53-1.533a2.523 2.523 0 01-.277-.645h-2.146c.114.808.419 1.555.893 2.178zm1.25-3.473c.06-.233.153-.452.27-.655l-1.523-1.524a4.661 4.661 0 00-.894 2.18h2.147zM19.682 20.28a7.468 7.468 0 017.468 7.467c0 .319-.026.631-.066.939-.463 3.68-3.596 6.528-7.4 6.528-3.908 0-7.112-3.005-7.438-6.83a7.853 7.853 0 01-.031-.637 7.465 7.465 0 017.467-7.468zm3.738 4.653l-1.521 1.523c.118.204.211.422.271.657h2.146a4.624 4.624 0 00-.896-2.18zm.904 3.473h-2.163c-.061.23-.151.448-.271.648l1.525 1.524c.475-.62.794-1.361.909-2.172zm-3.996 3.98a4.652 4.652 0 002.166-.899l-1.518-1.518a2.57 2.57 0 01-.648.262v2.155zm0-7.123c.235.063.455.154.66.275l1.521-1.52a4.636 4.636 0 00-2.181-.902v2.148zm-1.294-2.15a4.648 4.648 0 00-2.181.904l1.521 1.52c.204-.12.426-.214.66-.274v-2.15zm0 9.272v-2.152a2.55 2.55 0 01-.647-.265l-1.519 1.52a4.658 4.658 0 002.166.897zm-3.091-1.8l1.531-1.53a2.495 2.495 0 01-.278-.648H15.05a4.65 4.65 0 00.893 2.178zm1.25-3.473c.061-.233.152-.452.271-.655l-1.523-1.524a4.663 4.663 0 00-.895 2.18h2.147z" fill="#000"/>
  <path d="M1.75 16.414v-5.526c0-.89.646-1.642 1.524-1.78 2.107-.33 5.842-.952 7.52-1.47 2.406-.741 11.702-4.677 14.921-5.416 3.22-.74 17.738-4.685 31.643.135 2.353.815 12.938 5.875 19.162 8.506 1.833.04 19.976 3.822 20.942 6.414.966 2.593 1.269 3.85 1.447 4.509.178.658 0 3.807-1.348 6-1.374.777-4.019 1.299-7.077 1.649.035-.187.073-.371.097-.56a8.6 8.6 0 00.078-1.125c0-4.945-4.022-8.97-8.968-8.97s-8.968 4.024-8.968 8.97c0 .254.017.506.036.754.047.555.147 1.094.292 1.613h-.024l-44.516-.896c.02-.115.046-.23.061-.346.053-.402.078-.772.078-1.125 0-4.945-4.022-8.968-8.968-8.968s-8.969 4.022-8.969 8.968c0 .019.002.035.003.053l-.19-.016-7.611-1.433S0 24.802 0 20.532c-.001-2.848 1.75-4.118 1.75-4.118zm44.159-5.24l16.625.51c-.306-2.491 1.169-3.05 1.169-3.05-6.609-6-19.929-6.202-19.929-6.202l2.135 8.743zm-18.658-.76l15.15.509-1.373-8.49c-7.83-.102-12.303 1.626-12.303 1.626l-2.237 3.61.763 2.745zm-8.541-.052h4.221l4.22-5.795a79.895 79.895 0 00-7.209 3.287 2.354 2.354 0 00-1.232 2.508z" fill="#000"/>
</svg>
