<svg fill="none" xmlns="http://www.w3.org/2000/svg" viewBox="0 0 99 40">
  <path d="M22.4 30.907c0 .38-.031.752-.08 1.119-.55 4.388-4.288 7.784-8.825 7.784-4.662 0-8.48-3.584-8.867-8.145a9.122 9.122 0 01-.038-.76A8.903 8.903 0 0113.495 22c4.917.003 8.905 3.988 8.905 8.907zM7.968 30.15h2.559c.07-.28.182-.541.323-.784L9.033 27.55a5.546 5.546 0 00-1.065 2.6zm1.067 4.14l1.826-1.827a3.023 3.023 0 01-.331-.771H7.97a5.574 5.574 0 001.065 2.598zm3.688-.422a3.041 3.041 0 01-.772-.316l-1.811 1.813a5.499 5.499 0 002.583 1.07v-2.568zm0-8.488a5.525 5.525 0 00-2.602 1.078l1.814 1.814c.244-.145.506-.256.787-.328V25.38zm5.232 2.168l-1.816 1.817c.142.242.252.505.32.784h2.562a5.545 5.545 0 00-1.066-2.6zm-3.69.396c.28.073.543.186.787.328l1.813-1.813a5.547 5.547 0 00-2.602-1.076l.002 2.561zm2.584 7.42l-1.811-1.81a2.98 2.98 0 01-.772.313v2.569a5.494 5.494 0 002.583-1.072zm2.182-3.672h-2.58a3.093 3.093 0 01-.32.772l1.819 1.82a5.582 5.582 0 001.08-2.591zM88.327 30.907c0 .38-.03.752-.08 1.119-.55 4.388-4.288 7.784-8.824 7.784-4.662 0-8.48-3.584-8.867-8.145a9.121 9.121 0 01-.04-.76A8.903 8.903 0 0179.424 22c4.917.003 8.904 3.988 8.904 8.907zm-14.433-.756h2.56c.07-.28.183-.541.323-.784L74.96 27.55a5.547 5.547 0 00-1.066 2.6zm1.067 4.14l1.826-1.827a3.023 3.023 0 01-.331-.771h-2.56a5.585 5.585 0 001.065 2.598zm3.689-.422a3.041 3.041 0 01-.772-.316l-1.811 1.813a5.499 5.499 0 002.583 1.07v-2.568zm0-8.488a5.522 5.522 0 00-2.601 1.078l1.813 1.814c.244-.145.506-.256.787-.328V25.38zm5.232 2.168l-1.817 1.817c.142.242.252.505.322.784h2.56a5.534 5.534 0 00-1.065-2.6zm-3.69.396c.28.073.543.186.787.328l1.814-1.814a5.543 5.543 0 00-2.602-1.075v2.561zm2.584 7.42l-1.81-1.81c-.238.14-.5.242-.773.313v2.569a5.49 5.49 0 002.583-1.072zm2.18-3.672h-2.578a3.056 3.056 0 01-.321.772l1.819 1.82a5.572 5.572 0 001.08-2.591z" fill="#000"/>
  <path d="M98.71 26.218l-1.013 5.479a2.62 2.62 0 01-2.573 2.143h-5.115c.139-.503.253-1.017.319-1.546.064-.5.096-.954.096-1.385 0-6.067-4.937-11.003-11.002-11.003-6.067 0-11.004 4.936-11.004 11.003 0 .315.02.626.047.938.058.684.182 1.35.36 1.992H24.08a10.798 10.798 0 00.415-2.93c0-6.066-4.936-11.003-11.002-11.003-6.066 0-11.003 4.937-11.003 11.003 0 .314.02.626.046.938.059.685.183 1.35.362 1.993H1.6S-.612 26.73.166 23.498c.607-2.518 2.16-3.544 2.16-3.544s-.146-3.692 1.845-7.513c.422-.81 3.704-5.277 8.645-9.73C15.074.675 16.85.041 19.89.032 28.5.01 48.294-.033 52.97.043c3.11.051 4.899.535 7.602 2.146a.692.692 0 01.329.768.683.683 0 01-.661.511h-.176l8.734 8.55s3.45.018 4.6.064c5.716.236 15.996 1.08 22.229 5.831a3.946 3.946 0 011.524 2.64c.174 1.363.2 2.871.2 2.871a2.616 2.616 0 011.359 2.794zM26.978 3.468h-9.024c-.98 0-1.93.324-2.703.927-2.113 1.648-3.768 3.466-5 5.068-.25.325-.294.764-.114 1.132.178.368.549.604.959.61l15.88.225.002-7.963zm4.807 0h-.612v8.02l.612.01v-8.03zm32.454 8.485l-8.67-8.487H35.982v8.088l20.77.293c-.01-.104-.025-.204-.025-.31 0-1.39.994-2.517 2.22-2.517 1.228 0 2.22 1.128 2.22 2.518 0 .127-.016.248-.031.37l3.104.045z" fill="#000"/>
</svg>
