<svg xmlns="http://www.w3.org/2000/svg" width="478.408" height="478.408">
	<path d="M167.162 132.159l-17.14 46.379c13.235 11.164 27.443 18.645 44.573 21.93l17.139-46.375c-17.13-3.3-31.336-10.76-44.572-21.934zM370.448 152.5l15.717-42.527c-17.443-2.814-34.473-2.797-52.072-1.719-5.238 14.176-10.479 28.353-15.717 42.527 17.601-1.079 34.63-1.093 52.072 1.719zM117.168 267.438c13.231 11.17 27.444 18.641 44.572 21.932l15.717-42.526c-17.131-3.291-31.337-10.763-44.573-21.933a730470 730470 0 00-15.716 42.527zM365.026 309.708l15.717-42.524c-13.237-11.168-27.441-18.638-44.572-21.933l-15.718 42.527c17.13 3.289 31.339 10.762 44.573 21.93zM213.814 291.089c18.209-1.472 36.357-3.56 54.567-5.029l15.717-42.529c-18.209 1.473-36.357 3.562-54.567 5.031l-15.717 42.527zM353.311 198.875c17.129 3.293 31.336 10.762 44.57 21.932 5.716-15.457 11.429-30.918 17.141-46.377-13.238-11.168-27.442-18.635-44.573-21.93-5.713 15.459-11.427 30.918-17.138 46.375zM194.596 200.468l-17.139 46.375c17.442 2.813 34.475 2.797 52.073 1.719l17.14-46.377c-17.601 1.08-34.631 1.097-52.074-1.717zM263.809 155.809l15.717-42.525c-17.6 1.08-34.632 1.096-52.073-1.717l-15.717 42.525c17.444 2.811 34.47 2.794 52.073 1.717zM301.237 197.157l-17.14 46.373c17.601-1.076 34.63-1.094 52.072 1.721a434347.94 434347.94 0 0117.141-46.375c-17.444-2.814-34.472-2.795-52.073-1.719zM301.237 197.157l17.139-46.375c-18.21 1.471-36.358 3.557-54.567 5.027l-17.139 46.375c18.209-1.468 36.356-3.557 54.567-5.027z" />
	<path d="M396.705 65.534c-9.065-1.562-18.66-2.32-29.334-2.32-15.253 0-30.415 1.56-45.078 3.068-2.908.299-5.809.598-8.7.883l-3.806.377c-13.428 1.336-27.313 2.717-40.715 2.717-11.688.001-21.813-1.052-30.958-3.217-23.964-5.672-41.767-20.959-56.028-48.111a12.502 12.502 0 00-22.791 1.479L.778 449.328c-2.393 6.476.917 13.665 7.392 16.058 1.429.528 2.892.779 4.332.779 5.083 0 9.861-3.124 11.727-8.171L84.23 295.64c17.737 18.512 43.149 32.83 59.108 36.605 11.058 2.616 23.07 3.889 36.724 3.889 14.66 0 29.187-1.445 43.235-2.845l3.731-.37c2.909-.286 5.828-.588 8.754-.89 14.049-1.446 28.575-2.941 42.559-2.941 9.24 0 17.451.641 25.103 1.959 27.344 4.71 47.165 20.396 62.379 49.364a12.5 12.5 0 0022.791-1.479l89.02-240.878a12.497 12.497 0 00-.659-10.146c-18.866-35.915-45.122-56.319-80.27-62.374zm-22.812 281.108c-17.228-22.326-39.065-35.558-66.207-40.231-9.068-1.562-18.668-2.321-29.347-2.321-15.266 0-30.442 1.562-45.119 3.073-2.892.298-5.777.596-8.65.879l-3.751.372c-13.441 1.338-27.34 2.722-40.759 2.722-11.691 0-21.821-1.053-30.968-3.217-14.564-3.445-42.809-21.25-54.83-39.432l79.733-215.739c15.615 20.353 34.875 33.063 58.36 38.622 11.056 2.617 23.066 3.89 36.717 3.889 14.643 0 29.155-1.443 43.188-2.839l3.785-.376c2.926-.288 5.861-.59 8.806-.894 14.034-1.443 28.548-2.938 42.519-2.938 9.236 0 17.444.641 25.091 1.957 25.793 4.443 44.894 18.652 59.746 44.564l-78.314 211.909z" />
</svg>
